<svg xmlns="http://www.w3.org/2000/svg" xmlns:xlink="http://www.w3.org/1999/xlink" width="562.9" height="395.8" viewBox="0 0 562.9 395.8">
  <defs>
    <linearGradient id="linear-gradient" y1="0.5" x2="1" y2="0.5" gradientUnits="objectBoundingBox">
      <stop offset="0" stop-color="#f5f1dc"/>
      <stop offset="1" stop-color="#efff00"/>
    </linearGradient>
  </defs>
  <g id="IT-Resource-Sharing" transform="translate(-8.8 -76.2)">
    <g id="Group_202" data-name="Group 202">
      <g id="Group_18" data-name="Group 18">
        <path id="Path_8" data-name="Path 8" d="M524.1,110.2a36.8,36.8,0,0,0-4-9.6l4.1-6.1-5.6-5.6L513,83.3l-6.1,4.1a40.571,40.571,0,0,0-9.6-4l-1.4-7.2h-16l-1.4,7.2a36.8,36.8,0,0,0-9.6,4l-6.1-4.1-5.6,5.6-5.6,5.6,4.1,6.1a40.57,40.57,0,0,0-4,9.6l-7.2,1.4v16l7.2,1.4a36.8,36.8,0,0,0,4,9.6l-4.1,6.1,5.6,5.6,5.6,5.6,6.1-4.1a40.571,40.571,0,0,0,9.6,4l1.4,7.2h16l1.4-7.2a36.8,36.8,0,0,0,9.6-4l6.1,4.1,5.6-5.6,5.6-5.6-4.1-6.1a40.572,40.572,0,0,0,4-9.6l7.2-1.4v-16Zm-36.3,37.3a27.9,27.9,0,1,1,27.9-27.9A27.911,27.911,0,0,1,487.8,147.5Z" fill="#f0d420"/>
      </g>
      <g id="Group_19" data-name="Group 19">
        <path id="Path_9" data-name="Path 9" d="M534.9,177.8a16.977,16.977,0,0,0-1.8-4.4l1.9-2.8-2.6-2.6-2.6-2.6-2.8,1.9a16.976,16.976,0,0,0-4.4-1.8l-.7-3.3h-7.2l-.7,3.3a16.976,16.976,0,0,0-4.4,1.8l-2.8-1.9-2.6,2.6-2.6,2.6,1.9,2.8a16.976,16.976,0,0,0-1.8,4.4l-3.3.7v7.2l3.3.7a16.976,16.976,0,0,0,1.8,4.4l-1.9,2.8,2.6,2.6,2.6,2.6,2.8-1.9a16.977,16.977,0,0,0,4.4,1.8l.7,3.3h7.2l.7-3.3a16.977,16.977,0,0,0,4.4-1.8l2.8,1.9,2.6-2.6,2.6-2.6-1.9-2.8a16.975,16.975,0,0,0,1.8-4.4l3.3-.7v-7.2Zm-16.6,17.1a12.8,12.8,0,1,1,12.8-12.8A12.761,12.761,0,0,1,518.3,194.9Z" fill="#f0d420"/>
      </g>
      <g id="Group_20" data-name="Group 20">
        <rect id="Rectangle_89" data-name="Rectangle 89" width="39.1" height="118.8" transform="translate(342.951 431.227) rotate(180)" fill="#f0d420"/>
      </g>
      <g id="Group_21" data-name="Group 21">
        <path id="Path_10" data-name="Path 10" d="M170.4,369.6H476.3a16.047,16.047,0,0,0,16-16V147.3a16.047,16.047,0,0,0-16-16H170.4a16.047,16.047,0,0,0-16,16V353.7A15.962,15.962,0,0,0,170.4,369.6Z" fill="#f5f0b7"/>
      </g>
      <g id="Group_22" data-name="Group 22">
        <rect id="Rectangle_90" data-name="Rectangle 90" width="311.4" height="226.4" transform="translate(479.052 332.314) rotate(180)" fill="#fff"/>
      </g>
      <g id="Group_23" data-name="Group 23">
        <path id="Path_11" data-name="Path 11" d="M167.7,133.3H479.1V105.9H167.7Z" fill="url(#linear-gradient)"/>
      </g>
      <g id="Group_24" data-name="Group 24">
        <path id="Path_12" data-name="Path 12" d="M312.5,349.4a10.9,10.9,0,1,0,10.9-10.9A10.926,10.926,0,0,0,312.5,349.4Z" fill="#f0d420"/>
      </g>
      <g id="Group_27" data-name="Group 27">
        <g id="Group_26" data-name="Group 26">
          <g id="Group_25" data-name="Group 25">
            <path id="Path_13" data-name="Path 13" d="M272.5,160.8H366a3.543,3.543,0,0,0,3.5-3.5v-1.1a3.543,3.543,0,0,0-3.5-3.5H272.5a3.543,3.543,0,0,0-3.5,3.5v1.1A3.543,3.543,0,0,0,272.5,160.8Z" fill="#dfe1e8"/>
          </g>
        </g>
      </g>
      <g id="Group_30" data-name="Group 30">
        <g id="Group_29" data-name="Group 29">
          <g id="Group_28" data-name="Group 28">
            <path id="Path_14" data-name="Path 14" d="M272.5,175.4H366a3.543,3.543,0,0,0,3.5-3.5v-1.1a3.543,3.543,0,0,0-3.5-3.5H272.5a3.543,3.543,0,0,0-3.5,3.5v1.1A3.478,3.478,0,0,0,272.5,175.4Z" fill="#dfe1e8"/>
          </g>
        </g>
      </g>
      <g id="Group_33" data-name="Group 33">
        <g id="Group_32" data-name="Group 32">
          <g id="Group_31" data-name="Group 31">
            <path id="Path_15" data-name="Path 15" d="M272.5,190H366a3.543,3.543,0,0,0,3.5-3.5v-1.1a3.543,3.543,0,0,0-3.5-3.5H272.5a3.543,3.543,0,0,0-3.5,3.5v1.1A3.478,3.478,0,0,0,272.5,190Z" fill="#dfe1e8"/>
          </g>
        </g>
      </g>
      <g id="Group_37" data-name="Group 37">
        <g id="Group_36" data-name="Group 36">
          <g id="Group_35" data-name="Group 35">
            <g id="Group_34" data-name="Group 34">
              <path id="Path_16" data-name="Path 16" d="M316.5,316.4H199.7A17.733,17.733,0,0,1,182,298.7v-71A17.733,17.733,0,0,1,199.7,210H316.4a17.733,17.733,0,0,1,17.7,17.7v71A17.712,17.712,0,0,1,316.5,316.4ZM199.7,212.3a15.407,15.407,0,0,0-15.4,15.4v71a15.407,15.407,0,0,0,15.4,15.4H316.4a15.407,15.407,0,0,0,15.4-15.4v-71a15.407,15.407,0,0,0-15.4-15.4H199.7Z" fill="#dfe1e8"/>
            </g>
          </g>
        </g>
      </g>
      <g id="Group_40" data-name="Group 40">
        <g id="Group_39" data-name="Group 39">
          <g id="Group_38" data-name="Group 38">
            <path id="Path_17" data-name="Path 17" d="M208.4,236.8h99.4a7.17,7.17,0,0,0,7.2-7.2V227a7.17,7.17,0,0,0-7.2-7.2H208.4a7.17,7.17,0,0,0-7.2,7.2v2.6A7.17,7.17,0,0,0,208.4,236.8Z" fill="#dfe1e8"/>
          </g>
        </g>
      </g>
      <rect id="Rectangle_91" data-name="Rectangle 91" width="176" height="9" transform="translate(235.4 426.7)" fill="#f5f0b7"/>
      <g id="Group_49" data-name="Group 49">
        <path id="Path_18" data-name="Path 18" d="M444.1,233.4a25.373,25.373,0,0,1-12.5,21.9,26.168,26.168,0,0,1-4.8,2.2.9.9,0,0,1-.5.1,26.675,26.675,0,0,1-7.5,1.1,25.3,25.3,0,1,1,25.3-25.3Z" fill="#eef0f7"/>
        <g id="Group_41" data-name="Group 41">
          <path id="Path_19" data-name="Path 19" d="M412.7,230.7s-1.7-11.2,7.5-11c9.3.2,9.1,5.7,9,11.2-.2,5.5-3.7,5.1.3,12.7s-3.5,7.6-3.5,7.6l-5.8-8Z" fill="#3c4145"/>
        </g>
        <g id="Group_42" data-name="Group 42">
          <path id="Path_20" data-name="Path 20" d="M419.2,220.8s-6.3,1-6.5,9.9,1.7,10.8,7.2,9c5.5-1.9,7.2-11.2,7.4-12.6C427.3,225.6,427.7,219.7,419.2,220.8Z" fill="#eea886"/>
        </g>
        <g id="Group_43" data-name="Group 43">
          <path id="Path_21" data-name="Path 21" d="M430.2,251.8a6.019,6.019,0,0,1-3.5,5.6.9.9,0,0,1-.5.1,26.675,26.675,0,0,1-7.5,1.1,25.351,25.351,0,0,1-11.3-2.6c-.8-1.5.3-3.7,2.6-7,1.5-2.3,3.1-4.6,5.6-5.7,3.8-.6,7.9-.6,10.7,1C428.7,245.6,430.2,247.9,430.2,251.8Z" fill="#e55353"/>
        </g>
        <g id="Group_44" data-name="Group 44">
          <path id="Path_22" data-name="Path 22" d="M411.3,248.9l-2.9,4.6a25.273,25.273,0,0,0,.5-2.7c.1-.4.1-.8.2-1.3,0-.1.1-.3.1-.4h0c1.2-2.8,5.1-5,5.2-5Z" fill="#e55353"/>
        </g>
        <g id="Group_45" data-name="Group 45">
          <path id="Path_23" data-name="Path 23" d="M431.5,255.3a26.166,26.166,0,0,1-4.8,2.2.9.9,0,0,1-.5.1c-.6-1.7-1.2-3.1-1.3-3.5a3.932,3.932,0,0,0-.2-.6c-.5-1.3-1.7-4.1-1.7-6.3,0-1.4.5-2.6,1.9-2.9a8.636,8.636,0,0,1,1.5-.1,4.318,4.318,0,0,1,3,3v.1a17.878,17.878,0,0,1,.6,2,.774.774,0,0,0,.1.3c.1.4.3,1,.5,1.9C430.8,252.6,431.2,253.9,431.5,255.3Z" fill="#eea886"/>
        </g>
        <g id="Group_46" data-name="Group 46">
          <path id="Path_24" data-name="Path 24" d="M423.4,235.7c-.5,1-1.1,7.4-1.1,7.4s-7.7,2.9-6.9,1.3a5.338,5.338,0,0,0,.5-2.5,5.757,5.757,0,0,0-.1-1.5v-.3S423.9,234.6,423.4,235.7Z" fill="#eea886"/>
        </g>
        <g id="Group_47" data-name="Group 47">
          <path id="Path_25" data-name="Path 25" d="M416.6,227.2s3.2,5.2,6.2,7.3c2.9,2.1,1.4,3.7,1.4,3.7s7.7-16.1.4-17.2-11.7-1.2-11.9,9.7C412.7,230.7,416,227.1,416.6,227.2Z" fill="#3c4145"/>
        </g>
        <g id="Group_48" data-name="Group 48">
          <path id="Path_26" data-name="Path 26" d="M420.1,239.6c-1.2,1.7-4.3,2.2-4.3,2.2h0a5.757,5.757,0,0,0-.1-1.5A9.484,9.484,0,0,0,420.1,239.6Z" fill="#a77860"/>
        </g>
        <path id="Path_27" data-name="Path 27" d="M409.2,249h0a4.394,4.394,0,0,0-.3,1.7L410,249s2-2.9,2.7-3.7a8.216,8.216,0,0,1,1.7-1.4S410.4,245.9,409.2,249Z" fill="#bd4444"/>
        <path id="Path_28" data-name="Path 28" d="M424.5,253.4s4.9-1.9,6.4-2c0,0-1-7.9-5.8-7.1C420.2,245.1,424.5,253.4,424.5,253.4Z" fill="#e55353"/>
        <path id="Path_29" data-name="Path 29" d="M415.7,243.3s-3.6,5.6-2.4,6.1,7.9-.6,10.7-5.9C424,243.5,419.8,241.3,415.7,243.3Z" fill="#eea886"/>
      </g>
      <rect id="Rectangle_92" data-name="Rectangle 92" width="39.5" height="3.6" transform="matrix(1, -0.008, 0.008, 1, 109.691, 365.96)" fill="#323657"/>
      <rect id="Rectangle_93" data-name="Rectangle 93" width="39.5" height="3.6" transform="translate(145.709 368.174) rotate(-72.993)" fill="#323657"/>
      <g id="Group_50" data-name="Group 50">
        <rect id="Rectangle_94" data-name="Rectangle 94" width="3.1" height="94.9" transform="translate(217 374)" fill="#706865"/>
      </g>
      <g id="Group_51" data-name="Group 51">
        <rect id="Rectangle_95" data-name="Rectangle 95" width="135.4" height="5.4" transform="translate(236.897 373.93) rotate(180)" fill="#b59074"/>
      </g>
      <g id="Group_52" data-name="Group 52">
        <rect id="Rectangle_96" data-name="Rectangle 96" width="3.1" height="94.9" transform="translate(121.813 468.852) rotate(180)" fill="#706865"/>
      </g>
      <rect id="Rectangle_97" data-name="Rectangle 97" width="3.7" height="46.8" transform="translate(56.9 406.6)" fill="#918783"/>
      <path id="Path_30" data-name="Path 30" d="M105.2,447.8a17.932,17.932,0,0,0,.7,4.5c.5,1.8,1.5,8.6,2.7,9.6,1.3,1,5.3,3.5,4.7,6.1s-1.1,4.4-5.5,2.9-7.3-2.4-8.2-6.3a23.327,23.327,0,0,0-3.2-7.4l-3.2,7.9-1.7-.7s2.5-8.5,2.3-9.3,1.2-7.5,6.5-9.2C105.7,444.2,105.2,447.8,105.2,447.8Z" fill="#1d3b54"/>
      <path id="Path_31" data-name="Path 31" d="M134.5,450.3a20.631,20.631,0,0,0,2.3,3.9c1.1,1.5,4.6,7.4,6.1,7.8s6.2,1.2,6.7,3.9c.4,2.6.6,4.5-4,4.7s-7.7.5-9.9-2.8a22.491,22.491,0,0,0-5.8-5.6v8.5h-1.8s-.8-8.9-1.3-9.5-1.7-7.4,2.6-11C133.7,446.7,134.5,450.3,134.5,450.3Z" fill="#1d3b54"/>
      <path id="Path_32" data-name="Path 32" d="M87.3,334.7s1-3.7,1.1-4.1c.1-.5,1.1-1.4,2.3-2.4a8.279,8.279,0,0,1,3.6-1.7c.3.1.6,0,1,.6a2.825,2.825,0,0,1,.5,1.2,1.767,1.767,0,0,1,.9,1.3,1.258,1.258,0,0,1,.6,1.4,1.426,1.426,0,0,1,.6,1.2,10.145,10.145,0,0,0-1.2,1.4,20.02,20.02,0,0,1-4.8,3.7C91.8,337.3,88.8,339.5,87.3,334.7Z" fill="#eea886"/>
      <path id="Path_33" data-name="Path 33" d="M91.8,331.8a13.7,13.7,0,0,1,.4,2c-.1.5,3.5.6,3.5.6S93.7,331.3,91.8,331.8Z" fill="#cf8c6c"/>
      <path id="Path_34" data-name="Path 34" d="M51.1,341c1.5-2.4,3.4-3.4,9.6.9s4.7,3.4,6.2,4.8,8,4.7,8,4.7a62.335,62.335,0,0,0,5.6-6.4c2.1-3,6.3-11.1,6.3-11.1l6,4.5s-11.7,21.1-14.1,22.7-9.8-1.1-13.6-2.7-7.9-3.7-9.6-4.1C53.7,353.8,47.2,347.1,51.1,341Z" fill="#1d3b54"/>
      <rect id="Rectangle_98" data-name="Rectangle 98" width="13.6" height="1.1" transform="translate(92.134 329.676) rotate(-77.626)" fill="#eb4747"/>
      <path id="Path_35" data-name="Path 35" d="M93.9,326.6s-3,2.6-2.7,3.1a1.139,1.139,0,0,0,.8.5l-.8,1.6s.1,1.4,1.6.9c0,0,0,1.3,1.3.6,0,0,.4.9,1,.7a13.445,13.445,0,0,0,2.6-1.9s.2-.5-.6-1.2a1.36,1.36,0,0,0-.6-1.4,1.6,1.6,0,0,0-.9-1.3s0-1.7-1.5-1.8C94.3,326.4,94.1,326.5,93.9,326.6Z" fill="#db9c7c"/>
      <path id="Path_36" data-name="Path 36" d="M88.5,330.6a12.806,12.806,0,0,1,3.6-2.3c.3-.1.7-.2.9.1s.1,1-.7,1.8a9.85,9.85,0,0,0-1.5,2.3S89.6,333.1,88.5,330.6Z" fill="#eea886"/>
      <path id="Path_37" data-name="Path 37" d="M79.9,353.8s1.2-4.4-.2-7.8a10.874,10.874,0,0,1-1,6.1C77.6,353.8,79.9,353.8,79.9,353.8Z" fill="#152c3d"/>
      <path id="Path_38" data-name="Path 38" d="M102,354.5s3.3-24.2,9-34.8h-8.4s-9.4,16.5-7.6,33.2Z" fill="#eddad3"/>
      <path id="Path_39" data-name="Path 39" d="M104,336.4a26.027,26.027,0,0,0,1.2-2.4c.2-.6,1.2.4,1,1.2C106.1,335.9,104,336.4,104,336.4Z" fill="#eea886"/>
      <path id="Path_40" data-name="Path 40" d="M111.4,340.4a7.813,7.813,0,0,1-.5,1.2l-1,1c-.1.1-.2.3-.3.3a13.034,13.034,0,0,1-1.5,1.9c-.8.7-4,2.8-4,2.8l-2.3-2.4-1.8-1.9s1.5-5.7,2.2-6.4l.2-.2a9.861,9.861,0,0,1,1.8-.9c.1-.1,1.6-.9,2-.7a1.707,1.707,0,0,1,1.1,1.1,3.587,3.587,0,0,1,1.6,1.3,2.459,2.459,0,0,1,1.4,1.6C110.4,339.1,111.5,339.7,111.4,340.4Z" fill="#eea886"/>
      <path id="Path_41" data-name="Path 41" d="M126.3,402.9s-5.5,12.5-9.5,21.3c-.7,1.5-1.3,2.9-1.8,4.1-.6,1.4-1.2,2.6-1.5,3.4-2.5,5.7-8.7,18-8.7,18s-4.7.2-4.9-3.8c0,0,4.5-8.6,4.5-14.6s.8-23.7,6.6-27.6C117.8,399.2,122.4,398.3,126.3,402.9Z" fill="#eea886"/>
      <path id="Path_42" data-name="Path 42" d="M75.1,379.2a5.776,5.776,0,0,0,2.2,1.4c1,.3,17.5,1.5,25.1,4s17.8,4.1,19.7,6.3,5,14,4.9,16.3c-.1,2.2,6.7,40.1,7.6,43,.4,1.6-6.1,1-6.1,1s-9.4-22.4-11.4-26.5c-3.7-7.6-3.9-16.9-5.2-18.3s-16.3-4.7-25-4.7-27.9.7-30-.4c-2.1-1.2-15-9.7-9.6-21.1C52.6,368.8,75.1,379.2,75.1,379.2Z" fill="#eea886"/>
      <path id="Path_43" data-name="Path 43" d="M112.4,387.4,98.7,413.7s-4.1-9.8-11.3-11.4c-7.2-1.7-35.9-.8-35.9-.8s-13.2-16.6-1.9-25.4c11.3-8.7,24.4,1.4,24.4,1.4s2.7,2.9,4,3C87.7,381,97.9,382.8,112.4,387.4Z" fill="#1d3b54"/>
      <path id="Path_44" data-name="Path 44" d="M143,462s-4.2,1-5.8,0-7-10.2-8.8-10.8c0,0,1.7-3.5,6.1-1C134.5,450.3,141.8,460.5,143,462Z" fill="#eea886"/>
      <path id="Path_45" data-name="Path 45" d="M108.7,461.8s-4.3-.6-5.3-2.1c-1.1-1.6-2.7-12.1-4.2-13.3,0,0,2.9-2.6,6.1,1.4C105.2,447.8,108.1,460,108.7,461.8Z" fill="#eea886"/>
      <path id="Path_46" data-name="Path 46" d="M65.2,296.6a11.086,11.086,0,0,1,11.7,10.2,39.642,39.642,0,0,1-.8,4.2c-.6,1.8,1.1,7.3.7,7.5a9.228,9.228,0,0,1-2.2.6s-1.9,5.9-4,5.9c-2.1-.1-10-1.7-13.7-9.1C53.1,308.6,52,297.2,65.2,296.6Z" fill="#eea886"/>
      <path id="Path_47" data-name="Path 47" d="M67.7,322.3a11.584,11.584,0,0,0-.5,2.1c-.1.6-.3,1.4-.4,2.2-.4,2.2-.6,4.7,0,6.4,0,0-4.6,1.6-8.3-4.9,0,0,1.6-7-.5-11.3S67.7,322.3,67.7,322.3Z" fill="#eea886"/>
      <path id="Path_48" data-name="Path 48" d="M76.9,306.8s-5,4.5-10.4,4.2c-5.4-.4-8.9,6.4-8.9,6.4s-8.1-10.1-1.6-18.3C62.6,290.9,78.1,296.6,76.9,306.8Z" fill="#1d3b54"/>
      <path id="Path_49" data-name="Path 49" d="M64.1,310.9a1.616,1.616,0,0,0-2.8-1.2c-1.7,1.4.6,6.3,2,5.8C64.6,315.1,64.1,312,64.1,310.9Z" fill="#eea886"/>
      <path id="Path_50" data-name="Path 50" d="M67.2,324.4c-.1.6-.3,1.4-.4,2.2a21.881,21.881,0,0,1-6.4-6C62.7,322.7,67.2,324.4,67.2,324.4Z" fill="#a77860"/>
      <path id="Path_51" data-name="Path 51" d="M79.7,349.3c-1,4.5-3.5,4.7-3.4,8.1.2,3.3,1.1,3.6-.6,8.8a28.063,28.063,0,0,0-.8,3.1.6.6,0,0,1-.1.4l-.3,1.8a18.165,18.165,0,0,0-.3,3.2,6.659,6.659,0,0,0,1.7,4.6S59.1,389.4,47.6,388c0,0,3-12.6,4.6-16.9s1.1-24.2-.1-28.5c-1.8-6.3,1.8-15.8,6.7-17l7.6,3.5s7.6,9.1,9.3,10.5C77.4,340.9,80.6,344.7,79.7,349.3Z" fill="#1d3b54"/>
      <path id="Path_52" data-name="Path 52" d="M54.7,330.9c2.1-1.8,5.2-4.8,9.7,1.2s7.8,9.9,8.8,11.7,9.5,14,9.5,14,4.5-4.2,7.1-6.1c2.9-2.2,10.8-10.5,10.8-10.5l5.2,5.8s-18.1,20.1-20.9,20.8-10.7-6.4-13.8-9.1S59.3,346,57.7,345,49.1,335.5,54.7,330.9Z" fill="#1d3b54"/>
      <path id="Path_53" data-name="Path 53" d="M116.8,424.2c-.7,1.5-1.3,2.9-1.8,4.1-2-6.5-1.9-17.5-1.9-17.5A54.106,54.106,0,0,0,116.8,424.2Z" fill="#a77860"/>
      <rect id="Rectangle_99" data-name="Rectangle 99" width="58.3" height="6.4" transform="translate(29.1 401.5)" fill="#f5f0b7"/>
      <path id="Path_54" data-name="Path 54" d="M59.5,381.1s-1.5,5.9,5.4,7.3c6.9,1.3,15.4,3.1,15.4,13.7h-24Z" fill="#f5f0b7"/>
      <path id="Path_55" data-name="Path 55" d="M95,316.4l1-1.8.1,2Z" fill="#eea886"/>
      <path id="Path_56" data-name="Path 56" d="M29.1,407.9,8.8,322.3s36.8-5.8,41.2,10.8c4.4,16.5,11.6,65.6,20.4,68.7C79.1,404.8,29.1,407.9,29.1,407.9Z" fill="#f5f0b7"/>
      <path id="Path_57" data-name="Path 57" d="M76.5,363.3s-.4,1.6-.8,2.9l-9-11.6Z" fill="#152c3d"/>
      <path id="Path_58" data-name="Path 58" d="M54,310.1s3.5,9.4,2.6,11.9a7.951,7.951,0,0,0,4.5-8.5C60.1,307.4,54,310.1,54,310.1Z" fill="#1d3b54"/>
      <path id="Path_59" data-name="Path 59" d="M66.8,329.5v-1.8L59,323.9,56.2,327Z" fill="#1d3b54"/>
      <path id="Path_60" data-name="Path 60" d="M94.7,465.4a3,3,0,0,1-6,0,3.076,3.076,0,0,1,3-3A2.945,2.945,0,0,1,94.7,465.4Z" fill="#bfb2ac"/>
      <path id="Path_61" data-name="Path 61" d="M26.1,462.4l.8,2.1,32.6-10.1L57.9,450Z" fill="#918783"/>
      <path id="Path_62" data-name="Path 62" d="M91.6,462.4l-.7,2.1L58.3,454.4l1.4-4.6Z" fill="#918783"/>
      <path id="Path_63" data-name="Path 63" d="M68.7,464.3v2.5L58.3,454.4l1.4-4.6Z" fill="#918783"/>
      <path id="Path_64" data-name="Path 64" d="M68.9,465.4a3,3,0,0,1-6,0,3.076,3.076,0,0,1,3-3A2.888,2.888,0,0,1,68.9,465.4Z" fill="#bfb2ac"/>
      <circle id="Ellipse_28" data-name="Ellipse 28" cx="3" cy="3" r="3" transform="translate(23.1 462.4)" fill="#bfb2ac"/>
      <g id="Group_62" data-name="Group 62">
        <path id="Path_65" data-name="Path 65" d="M453.4,159.5a32.8,32.8,0,0,1-7.7,21.2,32.319,32.319,0,0,1-3.7,3.7,10.6,10.6,0,0,0-1.2,1,7.1,7.1,0,0,1-1.4,1,32.771,32.771,0,0,1-15,5.8c-1,.1-2,.2-3,.2h-1.1c-1.1,0-2.1-.1-3.2-.1-1.2-.1-2.3-.3-3.4-.5a32.738,32.738,0,0,1-13.5-6.2,31.088,31.088,0,0,1-3.3-2.9l-.6-.6-2.1-2.4a33.035,33.035,0,1,1,59.2-20.2Z" fill="#eef0f7"/>
        <g id="Group_61" data-name="Group 61">
          <g id="Group_53" data-name="Group 53">
            <path id="Path_66" data-name="Path 66" d="M441.9,177.7l-2.4,8.7a32.771,32.771,0,0,1-15,5.8c-1,.1-2,.2-3,.2h-1.1c-1.1,0-2.1-.1-3.2-.1-1.2-.1-2.3-.3-3.4-.5a32.738,32.738,0,0,1-13.5-6.2c-.5-2.9-1-6.1-1.4-9.1,2.4-.9,10.1-3.5,15-5.2.1,0,.1,0,.2-.1.1,0,.2-.1.3-.1a6.889,6.889,0,0,0,.8-.3c.3-.1.5-.2.8-.3,1-.3,1.7-.6,2-.7h.2l6.5.5,1.1.1h.4c.4.1,1.5.4,3.1.9h0C433.3,172.7,439.6,174.9,441.9,177.7Z" fill="#d9c7c1"/>
          </g>
          <g id="Group_54" data-name="Group 54">
            <path id="Path_67" data-name="Path 67" d="M422.2,143.1s7.8,1.3,6.5,13.6-8.3,11.2-8.7,11.2c-.5,0-7,.1-7.3-14.9C412.6,153,412.5,141.9,422.2,143.1Z" fill="#eea987"/>
          </g>
          <g id="Group_55" data-name="Group 55">
            <path id="Path_68" data-name="Path 68" d="M425.6,164.3s-.3,5.1.2,6.2-6.3,4.6-10.5.6c0,0,.9-5.5.6-7.5C415.6,161.7,425.6,164.3,425.6,164.3Z" fill="#eea987"/>
          </g>
          <g id="Group_56" data-name="Group 56">
            <path id="Path_69" data-name="Path 69" d="M428.8,153.2s.9-.9,1.2,0-1.4,5.1-1.3,5.3c0,0-.2.4-.4.2C428.2,158.5,428.8,153.2,428.8,153.2Z" fill="#eea987"/>
          </g>
          <g id="Group_57" data-name="Group 57">
            <path id="Path_70" data-name="Path 70" d="M412.7,152.9s-.8-.9-1.2,0c-.3.9.9,5.1,1.1,5.3,0,0,.3.4.5.2A47.386,47.386,0,0,0,412.7,152.9Z" fill="#eea987"/>
          </g>
          <g id="Group_58" data-name="Group 58">
            <path id="Path_71" data-name="Path 71" d="M429.3,152.2c-.3,1.7-.5,2.9-.5,2.9l-1.1,1.5a25.566,25.566,0,0,0-.1-3.8,6.374,6.374,0,0,1-.2-.9,12.257,12.257,0,0,0-.4-1.6c-.1-.4-6.7-2.3-12.6.4a3.384,3.384,0,0,1,0,1.1c0,.7-.1,1.4-.4,1.5-.6.2-.3,3.9-.3,3.9l-.9-1.1s-.3-1.9-.5-4.1h0c-.1-.5-.1-1-.2-1.6-.1-2.2.1-6.2,3-8.6,1.9-.8,5-1.5,10.2,0a3.7,3.7,0,0,1,1.5.4C430,145.8,429.3,152.2,429.3,152.2Z" fill="#e8734d"/>
          </g>
          <path id="Path_72" data-name="Path 72" d="M416.4,166.2a5.344,5.344,0,0,0,4.2,1.7,5.932,5.932,0,0,0,4.2-1.6s-1.4,2.9-4.2,2.9S416.4,166.2,416.4,166.2Z" fill="#c78d71"/>
          <path id="Path_73" data-name="Path 73" d="M414.5,171.2s2.1,3.7,6.1,4c2.5.2,4.7-3,5.8-4.6A15.562,15.562,0,0,0,414.5,171.2Z" fill="#eea987"/>
          <path id="Path_74" data-name="Path 74" d="M425.6,169.5a22.628,22.628,0,0,1-5,4.4l2.1,3.3,3.6-6.5Z" fill="#eddad3"/>
          <path id="Path_75" data-name="Path 75" d="M415.5,170a14.037,14.037,0,0,0,5.1,3.9l-2.3,3.4-4.1-5.9Z" fill="#eddad3"/>
          <path id="Path_76" data-name="Path 76" d="M420.6,173.8l1.8,2.8a3.7,3.7,0,0,1-3.7-.1Z" fill="#5073ab"/>
          <path id="Path_77" data-name="Path 77" d="M444,177.1a.31.31,0,0,1-.1.2c-.2.7-1,3.4-2,7.1a10.6,10.6,0,0,0-1.2,1,7.1,7.1,0,0,1-1.4,1,32.771,32.771,0,0,1-15,5.8c.5-11.4,1.8-21.5,1.8-21.5,1.1.3,2.1.6,3,.8h0a71.6,71.6,0,0,1,14.1,5.3h0A2.5,2.5,0,0,1,444,177.1Z" fill="#323657"/>
          <path id="Path_78" data-name="Path 78" d="M413.9,191.8a32.738,32.738,0,0,1-13.5-6.2,31.088,31.088,0,0,1-3.3-2.9l-.6-.6c-.6-2.5-1-4.1-1-4.2h0s4.1-2.7,18.5-6.5h0C414,171.7,414,181,413.9,191.8Z" fill="#323657"/>
          <path id="Path_79" data-name="Path 79" d="M421.6,176.9c-.1,3-.1,8.8-.1,15.5h-1.1c-1.1,0-2.1-.1-3.2-.1a96.8,96.8,0,0,1,2.2-15.4c.2-.7.3-1,.3-1l1.9.3C421.7,176.4,421.6,176.7,421.6,176.9Z" fill="#5073ab"/>
          <g id="Group_59" data-name="Group 59">
            <path id="Path_80" data-name="Path 80" d="M445.7,180.7a32.319,32.319,0,0,1-3.7,3.7,10.6,10.6,0,0,0-1.2,1l2.6-8.6h0c.2.1.3.3.5.5A13,13,0,0,1,445.7,180.7Z" fill="#323657"/>
          </g>
          <g id="Group_60" data-name="Group 60">
            <path id="Path_81" data-name="Path 81" d="M397,182.7l-.6-.6-2.1-2.4c.4-.9.7-1.5,1.1-1.7h0Z" fill="#323657"/>
          </g>
        </g>
      </g>
      <path id="Path_82" data-name="Path 82" d="M221.6,124.8H184.1a3.478,3.478,0,0,1-3.5-3.5v-3.4a3.478,3.478,0,0,1,3.5-3.5h37.5a3.478,3.478,0,0,1,3.5,3.5v3.4A3.543,3.543,0,0,1,221.6,124.8Z" fill="#f5f7ff"/>
      <g id="Group_78" data-name="Group 78">
        <g id="Group_65" data-name="Group 65">
          <g id="Group_64" data-name="Group 64">
            <g id="Group_63" data-name="Group 63">
              <path id="Path_83" data-name="Path 83" d="M199,192.4a20.765,20.765,0,0,0,6.6,1.1,21.09,21.09,0,0,0,17.1-8.3,21.81,21.81,0,0,0,4.5-12.8V171a20.653,20.653,0,0,0-1.2-6.1,21.278,21.278,0,0,0-19.8-14,20.634,20.634,0,0,0-13.1,4.3,21.318,21.318,0,0,0,5.9,37.2ZM189.9,172a15.986,15.986,0,0,1,31-5.3h0a17.067,17.067,0,0,1,.9,4.6v1.1a15.9,15.9,0,0,1-16.2,15.8,15.724,15.724,0,0,1-4.9-.8A16.152,16.152,0,0,1,189.9,172Z" fill="#78c2ff"/>
            </g>
          </g>
        </g>
        <g id="Group_68" data-name="Group 68">
          <g id="Group_67" data-name="Group 67">
            <g id="Group_66" data-name="Group 66">
              <path id="Path_84" data-name="Path 84" d="M218.5,182l4.2,3.3a21.371,21.371,0,0,1-17.1,8.3,20.764,20.764,0,0,1-6.6-1.1l1.7-5.1a16.238,16.238,0,0,0,17.8-5.4Z" fill="#1a598c"/>
            </g>
          </g>
        </g>
        <g id="Group_71" data-name="Group 71">
          <g id="Group_70" data-name="Group 70">
            <g id="Group_69" data-name="Group 69">
              <path id="Path_85" data-name="Path 85" d="M221.9,171.3l5.3-.3v1.4a21.155,21.155,0,0,1-4.5,12.8l-4.2-3.3a15.5,15.5,0,0,0,3.3-9.6A2.787,2.787,0,0,0,221.9,171.3Z" fill="#2273b5"/>
            </g>
          </g>
        </g>
        <g id="Group_74" data-name="Group 74">
          <g id="Group_73" data-name="Group 73">
            <g id="Group_72" data-name="Group 72">
              <path id="Path_86" data-name="Path 86" d="M221.9,171.3a17.863,17.863,0,0,0-.9-4.6h0l5-1.8a20.653,20.653,0,0,1,1.2,6.1Z" fill="#2273b5"/>
            </g>
          </g>
        </g>
        <g id="Group_77" data-name="Group 77">
          <g id="Group_76" data-name="Group 76">
            <g id="Group_75" data-name="Group 75">
              <path id="Path_87" data-name="Path 87" d="M193.1,155.2a21.353,21.353,0,0,1,32.9,9.7l-5,1.8h0a15.943,15.943,0,0,0-14.8-10.5,16.151,16.151,0,0,0-9.9,3.3Z" fill="#4da8f2"/>
            </g>
          </g>
        </g>
      </g>
      <g id="Group_83" data-name="Group 83">
        <g id="Group_79" data-name="Group 79">
          <path id="Path_88" data-name="Path 88" d="M364.9,234.9H350.4a4.588,4.588,0,0,1-4.6-4.6V215.8a4.588,4.588,0,0,1,4.6-4.6h14.5a4.588,4.588,0,0,1,4.6,4.6v14.5A4.467,4.467,0,0,1,364.9,234.9Z" fill="#f0d420"/>
        </g>
        <g id="Group_82" data-name="Group 82">
          <g id="Group_81" data-name="Group 81">
            <g id="Group_80" data-name="Group 80">
              <path id="Path_89" data-name="Path 89" d="M356.9,228.3l-6-5.2a1.2,1.2,0,1,1,1.6-1.8l4.2,3.7,6.1-6.8a1.2,1.2,0,0,1,1.8,1.6Z" fill="#f3f3f3"/>
            </g>
          </g>
        </g>
      </g>
      <g id="Group_88" data-name="Group 88">
        <g id="Group_84" data-name="Group 84">
          <path id="Path_90" data-name="Path 90" d="M364.9,265.4H350.4a4.588,4.588,0,0,1-4.6-4.6V246.3a4.588,4.588,0,0,1,4.6-4.6h14.5a4.588,4.588,0,0,1,4.6,4.6v14.5A4.525,4.525,0,0,1,364.9,265.4Z" fill="#f0d420"/>
        </g>
        <g id="Group_87" data-name="Group 87">
          <g id="Group_86" data-name="Group 86">
            <g id="Group_85" data-name="Group 85">
              <path id="Path_91" data-name="Path 91" d="M356.9,258.7l-6-5.2a1.2,1.2,0,1,1,1.6-1.8l4.2,3.7,6.1-6.8a1.2,1.2,0,0,1,1.8,1.6Z" fill="#f3f3f3"/>
            </g>
          </g>
        </g>
      </g>
      <g id="Group_90" data-name="Group 90">
        <g id="Group_89" data-name="Group 89">
          <path id="Path_92" data-name="Path 92" d="M364.9,295.8H350.4a4.588,4.588,0,0,1-4.6-4.6V276.7a4.588,4.588,0,0,1,4.6-4.6h14.5a4.588,4.588,0,0,1,4.6,4.6v14.5A4.467,4.467,0,0,1,364.9,295.8Z" fill="#f0d420"/>
        </g>
      </g>
      <g id="Group_107" data-name="Group 107">
        <g id="Group_93" data-name="Group 93">
          <g id="Group_92" data-name="Group 92">
            <g id="Group_91" data-name="Group 91">
              <path id="Path_93" data-name="Path 93" d="M270.5,436.5s.7,4.8,1.2,6.9,4.9,7.9,4.8,8.9-2,2.2-2.9,1.4-7.2-7.3-8.6-10c-1.3-2.8-5.8-6.4-6.2-7.6-.5-1.2,5.2-4.8,6.7-5.4C267,430.2,270.5,436.5,270.5,436.5Z" fill="#1d2033"/>
            </g>
          </g>
        </g>
        <path id="Path_94" data-name="Path 94" d="M259.4,350.8a18.287,18.287,0,0,0,1,3.6,30.008,30.008,0,0,1,1.7,3.8c.1.4.8,3.3,1,3.6.1.4-.7.9-1.3.2a25.157,25.157,0,0,1-1.2-2.9c-.2-.6-1-2.5-1.2-2.2a19.444,19.444,0,0,0-.2,3.6,23.336,23.336,0,0,0,.6,3.5c.2.8,1.3,4.3.9,4.5s-.8.1-1.4-.8a.978.978,0,0,1-1.4-.6s-.8.3-1.3-1.2a1.746,1.746,0,0,1-.8-.9,35.993,35.993,0,0,1-1.5-7c0-1.9.5-3.2.4-4.5a39.881,39.881,0,0,0-.8-4.2Z" fill="#eea886"/>
        <path id="Path_95" data-name="Path 95" d="M267.3,430l-1.7.7,4.9,5.8,1.7-1.8Z" fill="#50558a"/>
        <path id="Path_96" data-name="Path 96" d="M284.6,442.1a17.7,17.7,0,0,1-2,3.7c-.9,1.1-4.5,2.9-4.5,6.1,0,3.4,6,2.5,8.4,2.3,2.4-.1,2.5-1.9,3.5-3.9,1-1.9,2-1.6,2.2-3.1s-.8-5-.8-5Z" fill="#1d2033"/>
        <path id="Path_97" data-name="Path 97" d="M284.5,441.2l-.2,1.6a12.325,12.325,0,0,0,7.2.1l-.2-2.2Z" fill="#50558a"/>
        <path id="Path_98" data-name="Path 98" d="M305.1,400.2c0-4.2-3.1-40.7-2.9-42.1.1-.9-.9-9.7-1.6-15.6v-.2h0c-.2-1.7-.4-3.1-.5-4.1a4.142,4.142,0,0,1-.1-1v-.3s-19.7-3.9-29.9-.2c-.4.2-.8.3-1.2.5a1.75,1.75,0,0,1-.1.5q-.15,1.2-.6,4.5a4.253,4.253,0,0,1-.2,1.1c-1.5,11-.5,23,2,35.2,2.5,12,3.9,21,4.1,22.8.3,2.3,1.3,8.6,2.5,15.5-5.4,6.7-10.1,12.4-9.7,13,.9,1.4,8.5,9.3,8.9,7.9l3.5-4c.7,4.2,1.2,7.1,1.2,7.1s8.3,2,11.4.2c0,0-1.2-9.2-2.5-19.1C297,412.6,305.1,402.4,305.1,400.2Zm-18.5-3c-.1-5.6-2.6-37.1-2.3-37.1,1.2,0,8.2,30,8.4,34.2.1.9-1,2.8-2.8,5.3-.8,1.1-1.7,2.4-2.7,3.8h0C286.8,400.3,286.6,398.1,286.6,397.2Z" fill="#292c47"/>
        <g id="Group_94" data-name="Group 94">
          <path id="Path_99" data-name="Path 99" d="M308.4,284.6l-5.3,19c-.2.6-.4,1.4-.6,2.3h0a72.278,72.278,0,0,0-2.3,14.3c-.2,3.9.5,19.7.5,19.7s-8,3-20,2.2c0,0-12.9-.3-11.9-8.2,2.8-21,.1-29.6-.3-31.7,0,0-1.8-10.2-3-18.7,3.6-1.4,19.2-6.6,19.2-6.6l8,.6C292.6,277.6,304.8,280.6,308.4,284.6Z" fill="#d9c7c1"/>
        </g>
        <g id="Group_95" data-name="Group 95">
          <path id="Path_100" data-name="Path 100" d="M288.6,250.1s7.8,1.3,6.5,13.6-8.3,11.2-8.7,11.2c-.5,0-7,.1-7.3-14.9C279.1,260,279,248.9,288.6,250.1Z" fill="#eea987"/>
        </g>
        <g id="Group_96" data-name="Group 96">
          <path id="Path_101" data-name="Path 101" d="M292,271.3s-.3,5.1.2,6.2-6.3,4.6-10.5.6c0,0,.9-5.5.6-7.5C282,268.7,292,271.3,292,271.3Z" fill="#eea987"/>
        </g>
        <g id="Group_97" data-name="Group 97">
          <path id="Path_102" data-name="Path 102" d="M295.3,260.2s.9-.9,1.2,0-1.4,5.1-1.3,5.3c0,0-.2.4-.4.2A46.8,46.8,0,0,1,295.3,260.2Z" fill="#eea987"/>
        </g>
        <g id="Group_98" data-name="Group 98">
          <path id="Path_103" data-name="Path 103" d="M279.2,259.9s-.8-.9-1.2,0c-.3.9.9,5.1,1.1,5.3,0,0,.3.4.5.2A47.387,47.387,0,0,0,279.2,259.9Z" fill="#eea987"/>
        </g>
        <g id="Group_99" data-name="Group 99">
          <path id="Path_104" data-name="Path 104" d="M295.8,259.2c-.3,1.7-.5,2.9-.5,2.9l-1.1,1.5a25.566,25.566,0,0,0-.1-3.8,6.374,6.374,0,0,1-.2-.9,12.258,12.258,0,0,0-.4-1.6c-.1-.4-6.7-2.3-12.6.4v1.1c0,.7-.1,1.4-.4,1.5-.6.2-.3,3.9-.3,3.9l-.9-1.1s-.3-1.9-.5-4.1h0c-.1-.5-.1-1-.2-1.6-.1-2.2.1-6.2,3-8.6,1.9-.8,5-1.5,10.2,0a3.7,3.7,0,0,1,1.5.4C296.4,252.8,295.8,259.2,295.8,259.2Z" fill="#e8734d"/>
        </g>
        <path id="Path_105" data-name="Path 105" d="M282.8,273.2a5.344,5.344,0,0,0,4.2,1.7,5.932,5.932,0,0,0,4.2-1.6s-1.4,2.9-4.2,2.9C284.2,276.1,282.8,273.2,282.8,273.2Z" fill="#c78d71"/>
        <path id="Path_106" data-name="Path 106" d="M280.9,278.2s2.1,3.7,6.1,4c2.5.2,4.7-3,5.8-4.6A15.508,15.508,0,0,0,280.9,278.2Z" fill="#eea987"/>
        <path id="Path_107" data-name="Path 107" d="M292,276.5a22.628,22.628,0,0,1-5,4.4l2.1,3.3,3.6-6.5Z" fill="#eddad3"/>
        <path id="Path_108" data-name="Path 108" d="M281.9,277a14.037,14.037,0,0,0,5.1,3.9l-2.3,3.4-4.1-5.9Z" fill="#eddad3"/>
        <path id="Path_109" data-name="Path 109" d="M287,280.8l1.8,2.8a3.7,3.7,0,0,1-3.7-.1Z" fill="#5073ab"/>
        <path id="Path_110" data-name="Path 110" d="M268.3,343.6s9.8,3.6,32.1.2l-.3-4s-12.9,3.8-31.4.5Z" fill="#1d2033"/>
        <path id="Path_111" data-name="Path 111" d="M292.8,277.6a247.191,247.191,0,0,0-2,32c.3,14.8,11.5,41.8,11.5,41.8a98.34,98.34,0,0,0,7-7.4s-7.6-22-7.5-26,8.6-33.9,8.6-33.9S305.8,281.1,292.8,277.6Z" fill="#323657"/>
        <path id="Path_112" data-name="Path 112" d="M280.4,278.4s0,16.5-.3,31.3-2.3,42.5-2.3,42.5-11-1.7-13.1-4.4c0,0,4.4-25.7,4.3-29.7s-7.1-33.2-7.1-33.2S266,282.2,280.4,278.4Z" fill="#323657"/>
        <rect id="Rectangle_100" data-name="Rectangle 100" width="6.1" height="4.5" transform="translate(281.7 341)" fill="#3a4066"/>
        <path id="Path_113" data-name="Path 113" d="M286.2,282.9s-2.7,9.2-2.9,27.5.3,23.6.3,23.6l2.1,4.2,2.8-4.4s-.9-42.2-.4-50.6Z" fill="#5073ab"/>
        <g id="Group_104" data-name="Group 104">
          <g id="Group_103" data-name="Group 103">
            <g id="Group_102" data-name="Group 102">
              <g id="Group_101" data-name="Group 101">
                <g id="Group_100" data-name="Group 100">
                  <path id="Path_114" data-name="Path 114" d="M301.7,351.6s.7-.4.8-.8l.5-1c.1-.1.1-.2.2-.3a7.1,7.1,0,0,0,1.1-1.7,33.132,33.132,0,0,0,.5-4.6l-2.3-.7-2.1-.9s-4.5,3.5-4.9,4.2c0,.1-.1.1-.1.2-.3.6-.1,1.2-.2,1.6,0,.1-.2,1.4.1,1.7a1.793,1.793,0,0,0,1.3.5,3.241,3.241,0,0,0,1.7.8,2.3,2.3,0,0,0,1.8.5C300.2,351.2,301.1,351.9,301.7,351.6Z" fill="#eea886"/>
                </g>
              </g>
            </g>
          </g>
        </g>
        <g id="Group_105" data-name="Group 105">
          <path id="Path_115" data-name="Path 115" d="M298.7,341.3a22.637,22.637,0,0,0,7.5,4.2S320.8,321.7,321,320c.2-1.6-7.2-33.9-10.6-35.9l-6.1,17.8c.4-.1,6.9,13.5,6.9,15.2C311.4,319.5,298.7,341.3,298.7,341.3Z" fill="#323657"/>
        </g>
        <g id="Group_106" data-name="Group 106">
          <path id="Path_116" data-name="Path 116" d="M261.1,354.1a36.371,36.371,0,0,1-8,.3s1.8-30.5,1.7-32.2c-.2-1.6,3.8-35.3,7.1-37.3l6,17.9c-.4-.1-4,18.4-4,20.1C263.8,325.3,261.1,354.1,261.1,354.1Z" fill="#323657"/>
        </g>
        <path id="Path_117" data-name="Path 117" d="M294.9,344.7l9.4,4.8-3.7,6.8-8-8.5Z" fill="#292c47"/>
        <path id="Path_118" data-name="Path 118" d="M289.9,399.7l-.9,18.5-1.8-14.8h0C288.1,402.1,289.1,400.8,289.9,399.7Z" fill="#1d2033"/>
      </g>
      <g id="Group_108" data-name="Group 108">
        <rect id="Rectangle_101" data-name="Rectangle 101" width="5.5" height="17.9" transform="translate(242.7 174.4)" fill="#78c2ff"/>
      </g>
      <path id="Path_119" data-name="Path 119" d="M444.1,293.8a25.3,25.3,0,1,1-25.3-25.3A25.329,25.329,0,0,1,444.1,293.8Z" fill="#eef0f7"/>
      <g id="Group_109" data-name="Group 109">
        <rect id="Rectangle_102" data-name="Rectangle 102" width="5.5" height="12.9" transform="translate(233.8 179.4)" fill="#78c2ff"/>
      </g>
      <g id="Group_110" data-name="Group 110">
        <rect id="Rectangle_103" data-name="Rectangle 103" width="5.5" height="26.2" transform="translate(251.7 166)" fill="#78c2ff"/>
      </g>
      <g id="Group_199" data-name="Group 199">
        <g id="Group_111" data-name="Group 111">
          <rect id="Rectangle_104" data-name="Rectangle 104" width="35.2" height="2.1" transform="translate(514.63 368.452) rotate(180)" fill="#e2d2ca"/>
        </g>
        <g id="Group_112" data-name="Group 112">
          <rect id="Rectangle_105" data-name="Rectangle 105" width="3.1" height="94.9" transform="translate(506.8 373.9)" fill="#706865"/>
        </g>
        <g id="Group_113" data-name="Group 113">
          <rect id="Rectangle_106" data-name="Rectangle 106" width="24.4" height="3" transform="translate(484.934 368.763) rotate(180)" fill="#ccbdb7"/>
        </g>
        <g id="Group_114" data-name="Group 114">
          <rect id="Rectangle_107" data-name="Rectangle 107" width="9.3" height="28.1" transform="translate(477.334 368.428) rotate(180)" fill="#4667a8"/>
        </g>
        <g id="Group_115" data-name="Group 115">
          <rect id="Rectangle_108" data-name="Rectangle 108" width="135.4" height="5.4" transform="translate(527.202 373.906) rotate(180)" fill="#b59074"/>
        </g>
        <g id="Group_116" data-name="Group 116">
          <path id="Path_120" data-name="Path 120" d="M553.2,335.8s1.5,20.8-2.6,23.3c-2.5,1.6-12.7,6.8-12.4,7.8s5.7,8.8,5.7,8.8,19.5-12.8,20.1-16.9c.6-3.9-1-30.4-3.6-31.6-2-.9-3.1-.2-5.6,1.7C551.3,331.5,553.2,335.8,553.2,335.8Z" fill="#ffc05c"/>
        </g>
        <g id="Group_119" data-name="Group 119">
          <g id="Group_118" data-name="Group 118">
            <g id="Group_117" data-name="Group 117">
              <path id="Path_121" data-name="Path 121" d="M529.2,455.9s.6,4.2.7,4.8,6.7-.4,6.7-.4l.5-5C537.2,455.3,530.1,455.3,529.2,455.9Z" fill="#424773"/>
            </g>
          </g>
        </g>
        <g id="Group_122" data-name="Group 122">
          <g id="Group_121" data-name="Group 121">
            <g id="Group_120" data-name="Group 120">
              <path id="Path_122" data-name="Path 122" d="M529.9,460.2a17.429,17.429,0,0,1-4.2,3.6c-2,1.1-5.2,1.5-6.5,2.7-.9.8-3.2,4.4,5.3,4.3s12.6.5,13.5-.9-1.3-10-1.3-10S534.7,460.6,529.9,460.2Z" fill="#292c47"/>
            </g>
          </g>
        </g>
        <g id="Group_125" data-name="Group 125">
          <g id="Group_124" data-name="Group 124">
            <g id="Group_123" data-name="Group 123">
              <path id="Path_123" data-name="Path 123" d="M486.6,455.9s.6,4.2.7,4.8,6.7-.4,6.7-.4l.5-5C494.5,455.4,487.4,455.3,486.6,455.9Z" fill="#424773"/>
            </g>
          </g>
        </g>
        <g id="Group_128" data-name="Group 128">
          <g id="Group_127" data-name="Group 127">
            <g id="Group_126" data-name="Group 126">
              <path id="Path_124" data-name="Path 124" d="M487.2,460.2a17.43,17.43,0,0,1-4.2,3.6c-2,1.1-9.6,2-10.8,3.2-.9.8-2.3,4.1,9.6,3.8,8.5-.2,12.6.5,13.5-.9s-1.3-10-1.3-10S492.1,460.7,487.2,460.2Z" fill="#292c47"/>
            </g>
          </g>
        </g>
        <g id="Group_131" data-name="Group 131">
          <g id="Group_130" data-name="Group 130">
            <g id="Group_129" data-name="Group 129">
              <path id="Path_125" data-name="Path 125" d="M550.7,383.3s-24.2,4.1-29.7,5-35.1,8.2-38.8,10.5c-3,1.8,1.5,44.8,2.6,61.2h11.7l.8-49.2c14,.4,24-3.3,34.2-1.7s18.7,3.8,25.2-4.9C556.8,404,557,385.2,550.7,383.3Z" fill="#292c47"/>
            </g>
          </g>
        </g>
        <g id="Group_134" data-name="Group 134">
          <g id="Group_133" data-name="Group 133">
            <g id="Group_132" data-name="Group 132">
              <path id="Path_126" data-name="Path 126" d="M526.9,459.9l11.4-.7,1.1-48.5a65.219,65.219,0,0,0,13-.8l9.2-21.4c-8.1,1.6-33.9,8.1-37.3,10.2C521.3,400.5,525.8,443.5,526.9,459.9Z" fill="#292c47"/>
            </g>
          </g>
        </g>
        <g id="Group_137" data-name="Group 137">
          <g id="Group_136" data-name="Group 136">
            <g id="Group_135" data-name="Group 135">
              <path id="Path_127" data-name="Path 127" d="M539.6,292.5s-8.9-2.5-12.3,4.4-1.9,20,2.6,21.2,10.9-.2,12.8-4.5,3.3-10.4,2.9-14.3S541.9,293.5,539.6,292.5Z" fill="#eea886"/>
            </g>
          </g>
        </g>
        <g id="Group_140" data-name="Group 140">
          <g id="Group_139" data-name="Group 139">
            <g id="Group_138" data-name="Group 138">
              <path id="Path_128" data-name="Path 128" d="M532.3,316.8s.1,5.2-.5,6.4c-.6,1.1,12.4.8,12.4.8s-2-6.3-.9-11.7C544.4,307,532.3,316.8,532.3,316.8Z" fill="#eea886"/>
            </g>
          </g>
        </g>
        <g id="Group_143" data-name="Group 143">
          <g id="Group_142" data-name="Group 142">
            <g id="Group_141" data-name="Group 141">
              <path id="Path_129" data-name="Path 129" d="M544,310.3s-.7,1.4-4,1.2-7.8-4.3-9.2-4.6c-1.4-.4-1.5-1.2-1.5-1.2l-.8,1.3-1.5.2s1-4-1.2-5.5c-2.2-1.4,1-12.9,11.9-10.1,0,0,8.3,1.5,8.4,6.2C546.3,302.5,545.6,307.9,544,310.3Z" fill="#3a3f47"/>
            </g>
          </g>
        </g>
        <g id="Group_146" data-name="Group 146">
          <g id="Group_145" data-name="Group 145">
            <g id="Group_144" data-name="Group 144">
              <path id="Path_130" data-name="Path 130" d="M531.1,323s0-2.1,1-2.3,10.2-1.5,11.4-1l.5,2.8S541.7,323.9,531.1,323Z" fill="#e2d2ca"/>
            </g>
          </g>
        </g>
        <g id="Group_149" data-name="Group 149">
          <g id="Group_148" data-name="Group 148">
            <g id="Group_147" data-name="Group 147">
              <path id="Path_131" data-name="Path 131" d="M528.4,304.7c.2-1.7,2.2-3.8,3.4-1,1.1,2.7-.8,6.7-2,6.5C528.5,310,528.1,307.1,528.4,304.7Z" fill="#eea886"/>
            </g>
          </g>
        </g>
        <g id="Group_152" data-name="Group 152">
          <g id="Group_151" data-name="Group 151">
            <g id="Group_150" data-name="Group 150">
              <path id="Path_132" data-name="Path 132" d="M492.6,348.2Z" fill="#323657"/>
            </g>
          </g>
        </g>
        <g id="Group_155" data-name="Group 155">
          <g id="Group_154" data-name="Group 154">
            <g id="Group_153" data-name="Group 153">
              <path id="Path_133" data-name="Path 133" d="M542.2,293.8s10.8-.5,1.9,16.4Z" fill="#3a3f47"/>
            </g>
          </g>
        </g>
        <g id="Group_157" data-name="Group 157">
          <g id="Group_156" data-name="Group 156">
            <path id="Path_134" data-name="Path 134" d="M566.3,465.7l-.8,2.2-34-10.5,1.6-4.6Z" fill="#918783"/>
          </g>
        </g>
        <g id="Group_159" data-name="Group 159">
          <g id="Group_158" data-name="Group 158">
            <rect id="Rectangle_109" data-name="Rectangle 109" width="3.9" height="37" transform="translate(534.15 455.795) rotate(180)" fill="#918783"/>
          </g>
        </g>
        <g id="Group_161" data-name="Group 161">
          <g id="Group_160" data-name="Group 160">
            <rect id="Rectangle_110" data-name="Rectangle 110" width="22.8" height="2.2" transform="translate(543.65 419.063) rotate(180)" fill="#5e5854"/>
          </g>
        </g>
        <g id="Group_163" data-name="Group 163">
          <g id="Group_162" data-name="Group 162">
            <path id="Path_135" data-name="Path 135" d="M497.9,465.7l.8,2.2,34-10.5-1.5-4.9Z" fill="#918783"/>
          </g>
        </g>
        <g id="Group_165" data-name="Group 165">
          <g id="Group_164" data-name="Group 164">
            <path id="Path_136" data-name="Path 136" d="M521.8,467.7v2.6l10.9-12.9-1.5-4.9Z" fill="#918783"/>
          </g>
        </g>
        <g id="Group_167" data-name="Group 167">
          <g id="Group_166" data-name="Group 166">
            <path id="Path_137" data-name="Path 137" d="M494.7,468.8a3.2,3.2,0,1,0,3.2-3.2A3.222,3.222,0,0,0,494.7,468.8Z" fill="#bfb2ac"/>
          </g>
        </g>
        <g id="Group_169" data-name="Group 169">
          <g id="Group_168" data-name="Group 168">
            <path id="Path_138" data-name="Path 138" d="M521.6,468.8a3.2,3.2,0,1,0,3.2-3.2A3.222,3.222,0,0,0,521.6,468.8Z" fill="#bfb2ac"/>
          </g>
        </g>
        <g id="Group_171" data-name="Group 171">
          <g id="Group_170" data-name="Group 170">
            <path id="Path_139" data-name="Path 139" d="M563.1,468.8a3.2,3.2,0,1,0,3.2-3.2A3.222,3.222,0,0,0,563.1,468.8Z" fill="#bfb2ac"/>
          </g>
        </g>
        <g id="Group_172" data-name="Group 172">
          <path id="Path_140" data-name="Path 140" d="M508.9,416.8h46.4a3.8,3.8,0,0,0,3.8-3.8v-.7a3.8,3.8,0,0,0-3.8-3.8H508.9a3.8,3.8,0,0,0-3.8,3.8v.7A3.8,3.8,0,0,0,508.9,416.8Z" fill="#e2d2ca"/>
        </g>
        <g id="Group_173" data-name="Group 173">
          <rect id="Rectangle_111" data-name="Rectangle 111" width="3.1" height="94.9" transform="translate(412.217 468.827) rotate(180)" fill="#706865"/>
        </g>
        <g id="Group_174" data-name="Group 174">
          <path id="Path_141" data-name="Path 141" d="M436.5,353.9h72.4a3.8,3.8,0,0,0,3.8-3.8V301.3a3.8,3.8,0,0,0-3.8-3.8H436.5a3.8,3.8,0,0,0-3.8,3.8v48.8A3.864,3.864,0,0,0,436.5,353.9Z" fill="#f0d420"/>
        </g>
        <g id="Group_175" data-name="Group 175">
          <rect id="Rectangle_112" data-name="Rectangle 112" width="73.7" height="44.5" transform="translate(509.534 345.035) rotate(180)" fill="#f5f7ff"/>
        </g>
        <g id="Group_176" data-name="Group 176">
          <rect id="Rectangle_113" data-name="Rectangle 113" width="73.7" height="3.5" transform="translate(509.534 304.08) rotate(180)" fill="#cecfd6"/>
        </g>
        <g id="Group_177" data-name="Group 177">
          <path id="Path_142" data-name="Path 142" d="M441,342.3h4.2a2.263,2.263,0,0,0,2.3-2.3V309.1a2.263,2.263,0,0,0-2.3-2.3H441a2.263,2.263,0,0,0-2.3,2.3V340A2.2,2.2,0,0,0,441,342.3Z" fill="#cecfd6"/>
        </g>
        <g id="Group_178" data-name="Group 178">
          <path id="Path_143" data-name="Path 143" d="M492.5,310.1h13.7a1.324,1.324,0,0,0,1.3-1.3V308a1.324,1.324,0,0,0-1.3-1.3H492.5a1.324,1.324,0,0,0-1.3,1.3v.8A1.4,1.4,0,0,0,492.5,310.1Z" fill="#cecfd6"/>
        </g>
        <g id="Group_179" data-name="Group 179">
          <path id="Path_144" data-name="Path 144" d="M493.9,343.2h11a2.647,2.647,0,0,0,2.6-2.6V314.9a2.647,2.647,0,0,0-2.6-2.6h-11a2.647,2.647,0,0,0-2.6,2.6v25.7A2.522,2.522,0,0,0,493.9,343.2Z" fill="#cecfd6"/>
        </g>
        <g id="Group_180" data-name="Group 180">
          <path id="Path_145" data-name="Path 145" d="M470.1,349.2a2.6,2.6,0,1,0,2.6-2.6A2.647,2.647,0,0,0,470.1,349.2Z" fill="#5c5552"/>
        </g>
        <g id="Group_181" data-name="Group 181">
          <path id="Path_146" data-name="Path 146" d="M456.2,368.6v-1s1.4-6.2,11.4-6.2,9.8,7.2,9.8,7.2Z" fill="#2e436e"/>
        </g>
        <g id="Group_183" data-name="Group 183">
          <g id="Group_182" data-name="Group 182">
            <path id="Path_147" data-name="Path 147" d="M477.5,362.3a12.713,12.713,0,0,1-3-.6c-.8-.5-5.5-3.7-6.7-3.2-1.1.5-8.5,2.8-8.3,3.9.3,1.1.9,1,1.5.8.5-.2,5.9-1.3,6.4-1.1,0,0-5.3,1.9-5.3,3.3s1.1,1.8,1.6,2.3,1.1,1.9,2.5,2,8-2.2,9.4-2.3,3.9.1,4.1-.1C479.8,366.9,477.5,362.3,477.5,362.3Z" fill="#eea886"/>
          </g>
        </g>
        <g id="Group_186" data-name="Group 186">
          <g id="Group_185" data-name="Group 185">
            <g id="Group_184" data-name="Group 184">
              <path id="Path_148" data-name="Path 148" d="M516.9,325.9c6.9-1.2,14.2-3,14.2-3l12.9-.5s11.8,2.6,16.5,4.7c.4.2.4,10.5,1.7,13.2l-3.9,8.1s-2.2,16.1-2.7,23.3c-.2,3.3.6,31.8.6,31.8s-1.2.6-9.9,1.5c-8.8,1-30.7-.3-30.9-1.4-.1-1,4.2-38.6,4.4-40.6.3-3-.9-16.8-.9-16.8-1.7,2.2-5.9,12.3-10.3,17-2.6,2.8-15.4,4.5-17.8,4.6-5.3.2-14.8,1.2-15.1.7-.2-.3-.8-8.5-.2-8.7.5-.2,18.3-1.2,22.9-3.6,1.7-.9,6.7-11.8,6.7-11.8S513.1,327.7,516.9,325.9Z" fill="#ffc05c"/>
            </g>
          </g>
        </g>
        <g id="Group_187" data-name="Group 187">
          <path id="Path_149" data-name="Path 149" d="M541.7,402.8h22.7a7.341,7.341,0,0,0,7.3-7.3v-37a7.341,7.341,0,0,0-7.3-7.3H541.7a7.341,7.341,0,0,0-7.3,7.3v37A7.407,7.407,0,0,0,541.7,402.8Z" fill="#e2d2ca"/>
        </g>
        <g id="Group_188" data-name="Group 188">
          <path id="Path_150" data-name="Path 150" d="M541.1,414.8c5.5,0,9.9-1.8,13.2-5.5,7.4-8.2,6.1-22.7,6-23.3a2.11,2.11,0,0,0-4.2.4c0,.2,1.2,13.3-5,20.1-2.5,2.8-5.8,4.1-10.2,4.1a2.112,2.112,0,0,0-2.1,2.1A2.364,2.364,0,0,0,541.1,414.8Z" fill="#e2d2ca"/>
        </g>
        <g id="Group_198" data-name="Group 198">
          <path id="Path_151" data-name="Path 151" d="M473.8,318.8a10.55,10.55,0,0,1-2.4,6.7,13.58,13.58,0,0,1-1.2,1.2,1.38,1.38,0,0,1-.4.3c-.1.1-.3.2-.4.3a10.042,10.042,0,0,1-4.7,1.8c-.3,0-.6.1-.9.1h-1.3a4.253,4.253,0,0,1-1.1-.2,11.119,11.119,0,0,1-4.3-1.9,9.015,9.015,0,0,1-1-.9l-.2-.2a5.718,5.718,0,0,1-.7-.8,10.334,10.334,0,0,1-2.2-6.4,10.4,10.4,0,0,1,20.8,0Z" fill="#eef0f7"/>
          <g id="Group_197" data-name="Group 197">
            <g id="Group_189" data-name="Group 189">
              <path id="Path_152" data-name="Path 152" d="M470.2,324.5l-.8,2.8a10.042,10.042,0,0,1-4.7,1.8c-.3,0-.6.1-.9.1h-1.3a4.253,4.253,0,0,1-1.1-.2,11.119,11.119,0,0,1-4.3-1.9c-.1-.9-.3-1.9-.4-2.9.8-.3,3.2-1.1,4.7-1.6h.2c.1,0,.2-.1.3-.1a.349.349,0,0,0,.2-.1,3.932,3.932,0,0,1,.6-.2h0l2.1.2h.4a4.285,4.285,0,0,1,1,.3h0A8.142,8.142,0,0,1,470.2,324.5Z" fill="#d9c7c1"/>
            </g>
            <g id="Group_190" data-name="Group 190">
              <path id="Path_153" data-name="Path 153" d="M463.9,313.6s2.5.4,2.1,4.3-2.6,3.5-2.8,3.5c-.1,0-2.2,0-2.3-4.7C460.9,316.7,460.9,313.2,463.9,313.6Z" fill="#eea987"/>
            </g>
            <g id="Group_191" data-name="Group 191">
              <path id="Path_154" data-name="Path 154" d="M465,320.3a6.5,6.5,0,0,0,.1,1.9c.2.3-2,1.4-3.3.2a11.722,11.722,0,0,0,.2-2.4C461.9,319.5,465,320.3,465,320.3Z" fill="#eea987"/>
            </g>
            <g id="Group_192" data-name="Group 192">
              <path id="Path_155" data-name="Path 155" d="M466,316.8s.3-.3.4,0a7.091,7.091,0,0,1-.4,1.7s-.1.1-.1,0A9.149,9.149,0,0,1,466,316.8Z" fill="#eea987"/>
            </g>
            <g id="Group_193" data-name="Group 193">
              <path id="Path_156" data-name="Path 156" d="M460.9,316.7s-.3-.3-.4,0a7.435,7.435,0,0,0,.3,1.7.349.349,0,0,0,.2.1A10.282,10.282,0,0,0,460.9,316.7Z" fill="#eea987"/>
            </g>
            <g id="Group_194" data-name="Group 194">
              <path id="Path_157" data-name="Path 157" d="M466.2,316.5c-.1.5-.2.9-.2.9l-.4.5v-1.2a.367.367,0,0,0-.1-.3,4.331,4.331,0,0,0-.1-.5,5.655,5.655,0,0,0-4,.1v.3a.749.749,0,0,1-.1.5c-.2.1-.1,1.2-.1,1.2l-.3-.3s-.1-.6-.2-1.3h0a.9.9,0,0,0-.1-.5,3.306,3.306,0,0,1,.9-2.7,4.2,4.2,0,0,1,3.2,0s.4,0,.5.1A4.4,4.4,0,0,1,466.2,316.5Z" fill="#e8734d"/>
            </g>
            <path id="Path_158" data-name="Path 158" d="M462.1,320.9a1.94,1.94,0,0,0,2.6,0,1.389,1.389,0,0,1-2.6,0Z" fill="#c78d71"/>
            <path id="Path_159" data-name="Path 159" d="M461.5,322.5a2.763,2.763,0,0,0,1.9,1.3c.8.1,1.5-.9,1.8-1.4A3.9,3.9,0,0,0,461.5,322.5Z" fill="#eea987"/>
            <path id="Path_160" data-name="Path 160" d="M465,321.9a6.106,6.106,0,0,1-1.6,1.4l.7,1,1.1-2Z" fill="#eddad3"/>
            <path id="Path_161" data-name="Path 161" d="M461.8,322.1a4.109,4.109,0,0,0,1.6,1.2l-.7,1.1-1.3-1.9Z" fill="#eddad3"/>
            <path id="Path_162" data-name="Path 162" d="M463.4,323.3l.6.9a1.449,1.449,0,0,1-1.2,0Z" fill="#5073ab"/>
            <path id="Path_163" data-name="Path 163" d="M470.8,324.3l-.6,2.3a1.38,1.38,0,0,1-.4.3c-.1.1-.3.2-.4.3a10.042,10.042,0,0,1-4.7,1.8c.2-3.6.6-6.8.6-6.8.3.1.7.2,1,.3h0A42.212,42.212,0,0,1,470.8,324.3Z" fill="#323657"/>
            <path id="Path_164" data-name="Path 164" d="M461.3,329a11.119,11.119,0,0,1-4.3-1.9,9.015,9.015,0,0,1-1-.9l-.2-.2c-.2-.8-.3-1.3-.3-1.3h0a27.848,27.848,0,0,1,5.8-2.1h0Z" fill="#323657"/>
            <path id="Path_165" data-name="Path 165" d="M463.8,324.3v4.9h-1.3a24.7,24.7,0,0,1,.7-4.8.774.774,0,0,0,.1-.3l.6.1C463.8,324.1,463.8,324.2,463.8,324.3Z" fill="#5073ab"/>
            <g id="Group_195" data-name="Group 195">
              <path id="Path_166" data-name="Path 166" d="M471.3,325.4a13.58,13.58,0,0,1-1.2,1.2,1.38,1.38,0,0,1-.4.3l1-2.6C471.1,324.5,471.2,325.2,471.3,325.4Z" fill="#323657"/>
            </g>
            <g id="Group_196" data-name="Group 196">
              <path id="Path_167" data-name="Path 167" d="M456,326.1l-.2-.2a5.718,5.718,0,0,1-.7-.8c.1-.3.2-.5.3-.5h0Z" fill="#323657"/>
            </g>
          </g>
        </g>
      </g>
      <g id="Group_200" data-name="Group 200">
        <path id="Path_168" data-name="Path 168" d="M418.7,303.9a1.324,1.324,0,0,1-1.3-1.3V284.9a1.3,1.3,0,1,1,2.6,0v17.7A1.324,1.324,0,0,1,418.7,303.9Z" fill="#949494"/>
      </g>
      <g id="Group_201" data-name="Group 201">
        <path id="Path_169" data-name="Path 169" d="M427.5,295H409.8a1.3,1.3,0,1,1,0-2.6h17.7a1.324,1.324,0,0,1,1.3,1.3A1.26,1.26,0,0,1,427.5,295Z" fill="#949494"/>
      </g>
    </g>
  </g>
</svg>
